<svg width="33" height="32" viewBox="0 0 33 32" fill="none" xmlns="http://www.w3.org/2000/svg">
<path d="M5.70618 16.0003C5.56456 16.0003 5.42022 16.0003 5.27588 16.0003L5.30584 19.0148C7.13871 19.0018 8.72102 19.0927 10.1427 19.2978C11.5834 19.5081 12.2343 19.7885 12.6346 20.3701C13.1711 21.1516 13.4625 22.2915 13.4789 23.6676L16.6408 23.6338C16.619 21.6553 16.1587 20.0014 15.2791 18.7188C14.1243 17.0363 12.3568 16.5689 10.6193 16.3171C9.14315 16.1016 7.53088 15.9951 5.70618 15.9951V16.0003Z" fill="white"/>
<path d="M0.643348 19.0463C1.01646 21.9647 2.63418 25.1583 5.69532 26.241C8.20632 27.1524 10.9978 26.7603 13.5306 26.711L13.5007 23.6965C12.2724 23.6576 11.1013 23.6524 10.0011 23.5667C8.25807 23.4421 6.4252 23.1175 5.71166 21.4091C5.38212 20.7054 5.28136 19.9369 5.32221 18.9944L0.640625 19.0437L0.643348 19.0463Z" fill="white"/>
<path d="M5.70618 16.0005C5.56456 16.0005 5.42022 16.0005 5.27588 16.0005L5.30584 12.986C7.13871 12.999 8.72102 12.9082 10.1427 12.703C11.5834 12.4927 12.2343 12.2123 12.6346 11.6307C13.1711 10.8492 13.4625 9.70936 13.4789 8.33325L16.6408 8.36701C16.619 10.3455 16.1587 11.9994 15.2791 13.282C14.1243 14.9645 12.3568 15.4319 10.6193 15.6837C9.14315 15.8992 7.53088 16.0057 5.70618 16.0057V16.0005Z" fill="white"/>
<path d="M0.643348 12.955C1.01646 10.0366 2.63418 6.84042 5.69532 5.76031C8.20632 4.84896 11.0006 5.23842 13.5306 5.28776L13.5007 8.30221C12.2724 8.34116 11.1013 8.34635 10.0011 8.43203C8.25807 8.55666 6.4252 8.88121 5.71166 10.5897C5.38212 11.2933 5.28136 12.0618 5.32221 13.0043L0.640625 12.955H0.643348Z" fill="white"/>
<path d="M27.5747 15.9993C27.7163 15.9993 27.8607 15.9993 28.005 15.9993L27.9751 19.0138C26.1422 19.0008 24.5599 19.0917 23.1382 19.2968C21.6976 19.5071 21.0467 19.7875 20.6463 20.3691C20.1098 21.1506 19.8184 22.2905 19.802 23.6666L16.6401 23.6328C16.6619 21.6544 17.1222 20.0004 18.0019 18.7178C19.1566 17.0353 20.9241 16.568 22.6616 16.3161C24.1377 16.1006 25.75 15.9941 27.5747 15.9941V15.9993Z" fill="white"/>
<path d="M32.6378 19.0451C32.2647 21.9635 30.6469 25.1571 27.5858 26.2398C25.0748 27.1511 22.2833 26.7591 19.7505 26.7097L19.7804 23.6953C21.0087 23.6563 22.1798 23.6512 23.2801 23.5655C25.0231 23.4408 26.8559 23.1163 27.5695 21.4078C27.899 20.7042 27.9998 19.9357 27.9589 18.9932L32.6405 19.0425L32.6378 19.0451Z" fill="white"/>
<path d="M27.5747 16.0003C27.7163 16.0003 27.8607 16.0003 28.005 16.0003L27.9751 12.9858C26.1422 12.9988 24.5599 12.9079 23.1382 12.7028C21.6976 12.4925 21.0467 12.2121 20.6463 11.6305C20.1098 10.8489 19.8184 9.70911 19.802 8.33301L16.6401 8.36676C16.6619 10.3452 17.1222 11.9992 18.0019 13.2818C19.1566 14.9643 20.9241 15.4316 22.6616 15.6835C24.1377 15.899 25.75 16.0055 27.5747 16.0055V16.0003Z" fill="white"/>
<path d="M32.6378 12.9546C32.2647 10.0362 30.6469 6.84261 27.5858 5.7599C25.0748 4.84855 22.2833 5.24061 19.7505 5.28995L19.7804 8.3044C21.0087 8.34335 22.1798 8.34854 23.2801 8.43422C25.0231 8.55885 26.8559 8.8834 27.5695 10.5919C27.899 11.2955 27.9998 12.064 27.9589 13.0065L32.6405 12.9572L32.6378 12.9546Z" fill="white"/>
</svg>
