<svg width="124" height="28" viewBox="0 0 124 28" fill="none" xmlns="http://www.w3.org/2000/svg">
<path d="M47.0215 1.16211H53.2004C55.3097 1.16211 56.8486 1.62691 57.8171 2.55969C58.7856 3.49246 59.2698 4.92482 59.2698 6.85676V7.84645C59.2698 9.12071 59.0509 10.1578 58.6197 10.961C58.1852 11.7641 57.5219 12.3396 56.6297 12.6937V12.7633C58.6628 13.4241 59.681 15.1442 59.681 17.9267V20.0484C59.681 21.9582 59.1537 23.4158 58.099 24.4182C57.0443 25.4205 55.4988 25.9201 53.4657 25.9201H47.0248V1.16211H47.0215ZM52.7194 11.2455C53.5387 11.2455 54.1522 11.0463 54.5635 10.6448C54.9714 10.2432 55.1771 9.57287 55.1771 8.62745V7.24884C55.1771 6.35401 55.0112 5.70582 54.6763 5.30425C54.3413 4.90268 53.8139 4.70348 53.0942 4.70348H51.1208V11.2487H52.7228L52.7194 11.2455ZM53.4624 22.3882C54.1821 22.3882 54.7161 22.2048 55.0643 21.8412C55.4125 21.4744 55.585 20.8452 55.585 19.9472V17.7876C55.585 16.6556 55.3794 15.8715 54.9714 15.4351C54.5635 14.9988 53.8869 14.7806 52.9417 14.7806H51.1175V22.385H53.4624V22.3882Z" fill="#C4FF1F"/>
<path d="M60.2021 1.16211H71.3692V4.70032H64.2949V11.2455H69.9165V14.7837H64.2949V22.3882H71.3692V25.9264H60.2021V1.16211Z" fill="#C4FF1F"/>
<path d="M75.611 15.3845L70.6626 1.16211H75.0173L77.8099 10.2527H77.8829L80.6755 1.16211H84.6588L79.707 15.3845V25.9264H75.611V15.3845Z" fill="#C4FF1F"/>
<path d="M85.2919 24.6523C84.2239 23.5677 83.6899 22.0342 83.6899 20.0548V7.03396C83.6899 5.05459 84.2239 3.52105 85.2919 2.4365C86.3598 1.35196 87.8987 0.808105 89.9086 0.808105C91.9185 0.808105 93.4574 1.35196 94.5254 2.4365C95.5933 3.52105 96.1273 5.05459 96.1273 7.03396V20.0517C96.1273 22.031 95.5933 23.5646 94.5254 24.6491C93.4574 25.7337 91.9185 26.2775 89.9086 26.2775C87.8987 26.2775 86.3598 25.7368 85.2919 24.6491V24.6523ZM92.0312 20.3015V6.78733C92.0312 5.15893 91.3248 4.34632 89.9086 4.34632C88.4924 4.34632 87.786 5.15893 87.786 6.78733V20.3015C87.786 21.9299 88.4924 22.7425 89.9086 22.7425C91.3248 22.7425 92.0312 21.9299 92.0312 20.3015Z" fill="#C4FF1F"/>
<path d="M97.02 1.16211H102.157L106.141 15.9853H106.214V1.16211H109.862V25.9264H105.657L100.741 7.84961H100.668V25.9264H97.02V1.16211Z" fill="#C4FF1F"/>
<path d="M111.052 1.16211H117.307C119.344 1.16211 120.869 1.68067 121.888 2.71778C122.906 3.7549 123.413 5.27579 123.413 7.28046V19.8049C123.413 21.8096 122.906 23.3305 121.888 24.3676C120.869 25.4047 119.344 25.9233 117.307 25.9233H111.052V1.16211ZM117.231 22.3882C117.901 22.3882 118.415 22.1985 118.777 21.8222C119.135 21.4459 119.317 20.8325 119.317 19.982V7.10655C119.317 6.25599 119.138 5.64574 118.777 5.26631C118.418 4.89004 117.901 4.70032 117.231 4.70032H115.145V22.3882H117.231Z" fill="#C4FF1F"/>
<path d="M33.4412 14.0068C33.6137 14.0068 33.7895 14.0068 33.9653 14.0068L33.9288 17.6778C31.6967 17.662 29.7697 17.7727 28.0385 18.0225C26.284 18.2786 25.4913 18.6201 25.0038 19.3284C24.3504 20.2801 23.9955 21.6682 23.9756 23.344L20.125 23.3029C20.1515 20.8935 20.712 18.8794 21.7833 17.3174C23.1896 15.2684 25.342 14.6993 27.4581 14.3926C29.2557 14.1301 31.2191 14.0005 33.4412 14.0005V14.0068Z" fill="#C4FF1F"/>
<path d="M39.6069 17.7161C39.1525 21.2701 37.1824 25.1593 33.4545 26.4778C30.3966 27.5876 26.9971 27.1102 23.9126 27.0501L23.9491 23.3791C25.4449 23.3317 26.871 23.3253 28.2109 23.221C30.3336 23.0692 32.5657 22.674 33.4346 20.5934C33.8359 19.7365 33.9587 18.8006 33.9089 17.6528L39.6102 17.7129L39.6069 17.7161Z" fill="#C4FF1F"/>
<path d="M33.4412 14.0079C33.6137 14.0079 33.7895 14.0079 33.9653 14.0079L33.9288 10.3368C31.6967 10.3527 29.7697 10.242 28.0385 9.9922C26.284 9.73608 25.4913 9.39459 25.0038 8.68632C24.3504 7.73457 23.9955 6.34648 23.9756 4.67065L20.125 4.71176C20.1515 7.12116 20.712 9.13531 21.7833 10.6973C23.1896 12.7462 25.342 13.3154 27.4581 13.6221C29.2557 13.8845 31.2191 14.0142 33.4412 14.0142V14.0079Z" fill="#C4FF1F"/>
<path d="M39.6069 10.2989C39.1525 6.74485 37.1824 2.85567 33.4545 1.53714C30.3966 0.427296 26.9971 0.904749 23.9126 0.964826L23.9491 4.63584C25.4449 4.68327 26.871 4.68959 28.2109 4.79393C30.3336 4.94571 32.5657 5.34095 33.4346 7.42151C33.8359 8.27839 33.9587 9.21432 33.9089 10.3621L39.6102 10.302L39.6069 10.2989Z" fill="#C4FF1F"/>
<path d="M6.80967 14.0061C6.63721 14.0061 6.46143 14.0061 6.28564 14.0061L6.32213 17.6771C8.55422 17.6613 10.4812 17.7719 12.2125 18.0217C13.9669 18.2779 14.7596 18.6193 15.2472 19.3276C15.9005 20.2794 16.2554 21.6675 16.2753 23.3433L20.1259 23.3022C20.0994 20.8928 19.5389 18.8786 18.4676 17.3166C17.0614 15.2677 14.9089 14.6985 12.7929 14.3918C10.9953 14.1294 9.03181 13.9998 6.80967 13.9998V14.0061Z" fill="#C4FF1F"/>
<path d="M0.64443 17.7153C1.09881 21.2694 3.06888 25.1585 6.79677 26.4771C9.8547 27.5869 13.2542 27.1095 16.3387 27.0494L16.3022 23.3784C14.8064 23.3309 13.3803 23.3246 12.0404 23.2203C9.91771 23.0685 7.68562 22.6733 6.81667 20.5927C6.41536 19.7358 6.29264 18.7999 6.34239 17.6521L0.641113 17.7122L0.64443 17.7153Z" fill="#C4FF1F"/>
<path d="M6.80967 14.0064C6.63721 14.0064 6.46143 14.0064 6.28564 14.0064L6.32213 10.3354C8.55422 10.3512 10.4812 10.2405 12.2125 9.99073C13.9669 9.73462 14.7596 9.39313 15.2472 8.68485C15.9005 7.73311 16.2554 6.34502 16.2753 4.66919L20.1259 4.71029C20.0994 7.11969 19.5389 9.13385 18.4676 10.6958C17.0614 12.7448 14.9089 13.3139 12.7929 13.6206C10.9953 13.8831 9.03181 14.0127 6.80967 14.0127V14.0064Z" fill="#C4FF1F"/>
<path d="M0.64443 10.2974C1.09881 6.74336 3.06888 2.85101 6.79677 1.53565C9.8547 0.425806 13.2576 0.900097 16.3387 0.960174L16.3022 4.63119C14.8064 4.67861 13.3803 4.68494 12.0404 4.78928C9.91771 4.94106 7.68562 5.3363 6.81667 7.41685C6.41536 8.27374 6.29264 9.20967 6.34239 10.3575L0.641113 10.2974H0.64443Z" fill="#C4FF1F"/>
</svg>
