<svg width="40" height="40" viewBox="0 0 40 40" fill="none" xmlns="http://www.w3.org/2000/svg">
<path d="M6.16856 20.0007C5.99609 20.0007 5.82031 20.0007 5.64453 20.0007L5.68101 23.6717C7.9131 23.6559 9.84006 23.7666 11.5713 24.0164C13.3258 24.2725 14.1185 24.614 14.606 25.3223C15.2594 26.274 15.6143 27.6621 15.6342 29.3379L19.4848 29.2968C19.4583 26.8874 18.8978 24.8733 17.8265 23.3113C16.4202 21.2623 14.2678 20.6932 12.1517 20.3865C10.3541 20.124 8.3907 19.9944 6.16856 19.9944V20.0007Z" fill="white"/>
<path d="M0.00331662 23.71C0.457694 27.264 2.42777 31.1532 6.15565 32.4717C9.21358 33.5815 12.6131 33.1041 15.6976 33.044L15.6611 29.373C14.1653 29.3256 12.7392 29.3192 11.3992 29.2149C9.2766 29.0631 7.04451 28.6679 6.17555 26.5873C5.77424 25.7304 5.65153 24.7945 5.70128 23.6467L0 23.7068L0.00331662 23.71Z" fill="white"/>
<path d="M6.16856 20.001C5.99609 20.001 5.82031 20.001 5.64453 20.001L5.68101 16.33C7.9131 16.3458 9.84006 16.2352 11.5713 15.9854C13.3258 15.7292 14.1185 15.3878 14.606 14.6795C15.2594 13.7277 15.6143 12.3396 15.6342 10.6638L19.4848 10.7049C19.4583 13.1143 18.8978 15.1285 17.8265 16.6905C16.4202 18.7394 14.2678 19.3086 12.1517 19.6153C10.3541 19.8777 8.3907 20.0073 6.16856 20.0073V20.001Z" fill="white"/>
<path d="M0.00331662 16.292C0.457694 12.738 2.42777 8.84564 6.15565 7.53028C9.21358 6.42044 12.6164 6.89473 15.6976 6.9548L15.6611 10.6258C14.1653 10.6732 12.7392 10.6796 11.3992 10.7839C9.2766 10.9357 7.04451 11.3309 6.17555 13.4115C5.77424 14.2684 5.65153 15.2043 5.70128 16.3521L0 16.292H0.00331662Z" fill="white"/>
<path d="M32.8006 19.9995C32.9731 19.9995 33.1489 19.9995 33.3246 19.9995L33.2882 23.6705C31.0561 23.6547 29.1291 23.7654 27.3978 24.0151C25.6433 24.2713 24.8507 24.6128 24.3631 25.321C23.7098 26.2728 23.3549 27.6609 23.335 29.3367L19.4844 29.2956C19.5109 26.8862 20.0714 24.872 21.1427 23.31C22.5489 21.2611 24.7014 20.692 26.8174 20.3852C28.615 20.1228 30.5785 19.9932 32.8006 19.9932V19.9995Z" fill="white"/>
<path d="M38.9662 23.7087C38.5119 27.2628 36.5418 31.152 32.8139 32.4705C29.756 33.5803 26.3564 33.1029 23.272 33.0428L23.3085 29.3718C24.8043 29.3243 26.2304 29.318 27.5703 29.2137C29.693 29.0619 31.925 28.6667 32.794 26.5861C33.1953 25.7292 33.318 24.7933 33.2683 23.6455L38.9696 23.7056L38.9662 23.7087Z" fill="white"/>
<path d="M32.8006 20.0005C32.9731 20.0005 33.1489 20.0005 33.3246 20.0005L33.2882 16.3295C31.0561 16.3453 29.1291 16.2347 27.3978 15.9849C25.6433 15.7288 24.8507 15.3873 24.3631 14.679C23.7098 13.7272 23.3549 12.3392 23.335 10.6633L19.4844 10.7044C19.5109 13.1138 20.0714 15.128 21.1427 16.69C22.5489 18.7389 24.7014 19.3081 26.8174 19.6148C28.615 19.8772 30.5785 20.0069 32.8006 20.0069V20.0005Z" fill="white"/>
<path d="M38.9662 16.2915C38.5119 12.7375 36.5418 8.84834 32.8139 7.52981C29.756 6.41997 26.3564 6.89742 23.272 6.9575L23.3085 10.6285C24.8043 10.6759 26.2304 10.6823 27.5703 10.7866C29.693 10.9384 31.925 11.3336 32.794 13.4142C33.1953 14.2711 33.318 15.207 33.2683 16.3548L38.9696 16.2947L38.9662 16.2915Z" fill="white"/>
</svg>
